<svg width="24" height="24" viewBox="0 0 24 24" fill="none" xmlns="http://www.w3.org/2000/svg">
<path d="M8.26083 5.86114C9.10805 5.84215 9.82892 6.12733 10.5519 6.40364C10.7862 6.49307 11.0192 6.5863 11.2502 6.68501C11.8597 6.9453 12.4589 6.9377 13.0739 6.67911C13.8182 6.36609 14.5583 6.01554 15.3603 5.88898C17.5572 5.54222 19.3989 6.18765 20.8164 7.95479C20.9327 8.09948 20.9516 8.19187 20.77 8.32011C19.8336 8.98073 19.1082 9.8295 18.7442 10.9297C18.1371 12.766 18.3739 14.4893 19.5659 16.0379C20.0734 16.6972 20.7206 17.1929 21.472 17.5426C21.6197 17.6114 21.5532 17.6966 21.526 17.7818C21.2453 18.669 20.867 19.514 20.3934 20.3108C19.842 21.2385 19.2554 22.145 18.494 22.9179C17.3798 24.0489 16.1607 24.2632 14.7181 23.5966C14.2303 23.3714 13.7399 23.1528 13.2032 23.071C12.2472 22.9255 11.3326 23.0638 10.4544 23.4713C9.99878 23.6827 9.53354 23.8654 9.03525 23.9573C8.21062 24.11 7.5136 23.8396 6.88436 23.3288C6.07521 22.6719 5.49199 21.8215 4.92132 20.9647C3.69044 19.1174 2.93778 17.0811 2.58968 14.8879C2.48174 14.2079 2.42149 13.5228 2.43697 12.8348C2.46626 11.5304 2.68382 10.264 3.29633 9.09716C4.11552 7.53758 5.34597 6.47662 7.05589 6.02102C7.46674 5.91134 7.88679 5.84679 8.26083 5.86114Z" fill="white"/>
<path d="M11.9535 4.88161C11.9828 3.84892 12.4116 2.84913 13.1049 1.96493C13.8734 0.984119 14.8822 0.364841 16.0883 0.0750283C16.149 0.0602635 16.2118 0.0552013 16.2728 0.0425457C16.7849 -0.0646047 16.7264 0.0206094 16.7239 0.4239C16.7159 1.6865 16.2867 2.80188 15.511 3.77973C14.7863 4.69304 13.8684 5.30557 12.7074 5.50637C12.6392 5.51818 12.5693 5.52789 12.5003 5.52746C11.8568 5.52493 11.9773 5.64094 11.9535 4.88161Z" fill="white"/>
</svg>
