<svg width="24" height="24" viewBox="0 0 24 24" fill="none" xmlns="http://www.w3.org/2000/svg">
<path d="M4.2757 0.248037C4.604 0.458145 4.93263 0.668253 5.26094 0.878362C5.28684 0.90623 5.31555 0.929402 5.35518 0.933785C5.47034 1.03023 5.60142 1.10256 5.73155 1.17615C6.00775 1.36778 6.29205 1.54658 6.58198 1.71629C6.65531 1.77704 6.73302 1.83089 6.82165 1.86784C6.8978 1.93924 6.98768 1.9884 7.08131 2.03161C7.40618 2.25706 7.74105 2.46717 8.07934 2.67133C8.11336 2.70233 8.14706 2.73395 8.19481 2.74241C8.28563 2.82288 8.39205 2.87831 8.49722 2.93655C8.65201 3.04583 8.80743 3.15354 8.97626 3.24059C8.98594 3.2694 9.01059 3.27285 9.03556 3.27535C9.14073 3.3696 9.26556 3.43348 9.3879 3.50112C9.72089 3.72907 10.0607 3.94638 10.4084 4.15148C10.5644 4.25262 10.7202 4.35376 10.8762 4.45521C11.1624 4.6362 11.4489 4.8175 11.7351 4.99849C11.8118 5.06393 11.8964 5.11654 11.9885 5.15725C12.0615 5.22488 12.1436 5.2778 12.2366 5.31318C12.5533 5.53613 12.8798 5.74436 13.2159 5.93693C13.2702 5.98922 13.3301 6.03306 13.4019 6.05843C13.4849 6.13546 13.5854 6.18462 13.6821 6.23973C13.8207 6.32803 13.9593 6.41633 14.0975 6.50463C14.1347 6.52686 14.1721 6.54878 14.2092 6.57102C14.3113 6.65525 14.4196 6.72946 14.5413 6.78206C14.8696 7.01315 15.2113 7.22326 15.5534 7.43274C15.5733 7.44433 15.5936 7.45591 15.6136 7.46719C15.7484 7.55455 15.8832 7.6416 16.0181 7.72896C16.3074 7.92435 16.6004 8.11348 16.9028 8.28758C16.9549 8.32641 17.0074 8.36492 17.0595 8.40375C17.0139 8.45573 16.9684 8.50802 16.9228 8.56C16.8295 8.65269 16.7359 8.74568 16.6425 8.83837C16.582 8.87751 16.5339 8.92949 16.4918 8.98742C16.3635 9.0967 16.2406 9.2113 16.131 9.33969C16.0842 9.36849 16.0465 9.40638 16.0178 9.45335C15.8995 9.57171 15.7815 9.69039 15.6632 9.80875C15.6164 9.83756 15.5787 9.87545 15.5499 9.92242C15.4114 10.0257 15.2978 10.1551 15.1823 10.2819C15.1405 10.3041 15.1087 10.3361 15.0865 10.378C14.9458 10.487 14.8278 10.6185 14.7086 10.7494C14.6671 10.791 14.6256 10.8327 14.5841 10.8743C14.5425 10.9122 14.4998 10.9485 14.4595 10.9877C14.3094 11.1345 14.3097 11.1348 14.1518 10.9955C14.08 10.9031 13.998 10.8211 13.9059 10.7488C13.8319 10.6745 13.758 10.6003 13.684 10.5261C13.6122 10.4338 13.5302 10.3514 13.4381 10.2794C13.3641 10.2052 13.2902 10.131 13.2162 10.0567C13.1444 9.96438 13.0623 9.88202 12.9703 9.81C12.8963 9.73579 12.8224 9.66158 12.7484 9.58737C12.6766 9.495 12.5945 9.41265 12.5025 9.34063C12.4285 9.26641 12.3545 9.1922 12.2806 9.11799C12.2088 9.02562 12.1267 8.94327 12.0347 8.87125C11.9607 8.79704 11.8867 8.72283 11.8128 8.64861C11.741 8.55624 11.6589 8.47389 11.5668 8.40187C11.4929 8.32766 11.4189 8.25345 11.345 8.17924C11.2732 8.08686 11.1911 8.00451 11.099 7.93249C11.0251 7.85828 10.9511 7.78407 10.8772 7.70986C10.8054 7.61749 10.7233 7.53513 10.6312 7.46312C10.5573 7.3889 10.4833 7.31469 10.4093 7.24048C10.3376 7.14811 10.2555 7.06576 10.1634 6.99374C10.1007 6.9308 10.0383 6.86817 9.97555 6.80523C9.89222 6.70159 9.79891 6.60828 9.69561 6.52436C9.62165 6.45015 9.54768 6.37594 9.47372 6.30173C9.40194 6.20935 9.31986 6.127 9.2278 6.05498C9.15384 5.98077 9.07987 5.90656 9.00591 5.83235C8.93413 5.73998 8.85206 5.65794 8.75999 5.5856C8.68603 5.51139 8.61206 5.43718 8.5381 5.36297C8.46632 5.2706 8.38425 5.18825 8.29218 5.11623C8.21822 5.04202 8.14425 4.9678 8.07029 4.89359C7.99851 4.80122 7.91644 4.71887 7.82437 4.64685C7.75041 4.57264 7.67644 4.49843 7.60248 4.42421C7.5307 4.33184 7.44863 4.24949 7.35656 4.17747C7.2826 4.10326 7.20864 4.02905 7.13467 3.95484C7.06289 3.86246 6.98082 3.78011 6.88875 3.70809C6.81479 3.63388 6.74083 3.55967 6.66686 3.48546C6.59508 3.39309 6.51301 3.31073 6.42094 3.23872C6.34698 3.1645 6.27302 3.09029 6.19905 3.01608C6.12727 2.92371 6.0452 2.84136 5.95313 2.76934C5.87917 2.69513 5.80521 2.62092 5.73124 2.5467C5.65946 2.45433 5.57739 2.37198 5.48532 2.29996C5.41136 2.22575 5.3374 2.15154 5.26343 2.07733C5.19165 1.98495 5.10958 1.9026 5.01751 1.83058C4.94355 1.75637 4.86959 1.68216 4.79562 1.60795C4.72384 1.51558 4.64177 1.43322 4.5497 1.3612C4.47574 1.28699 4.40178 1.21278 4.32781 1.13857C4.25603 1.0462 4.17396 0.963846 4.08189 0.891826C4.00793 0.817615 3.93397 0.743404 3.86 0.669193C3.78822 0.57682 3.70615 0.494781 3.6144 0.422762C3.54043 0.348551 3.46647 0.274339 3.39251 0.200128C3.35693 0.138129 3.30138 0.0964831 3.23303 0.052019C3.54262 -0.0353435 3.8288 -0.0184346 4.09937 0.146897C4.15835 0.185411 4.21765 0.215785 4.2757 0.248037Z" fill="white"/>
<path d="M4.79618 23.4214C4.62266 23.5325 4.44946 23.6437 4.27594 23.7545C4.22257 23.7733 4.17607 23.8024 4.138 23.845C4.03439 23.8882 3.93047 23.9314 3.82685 23.9747C3.78597 23.9803 3.74509 23.9862 3.70421 23.9919C3.58562 24.0072 3.46765 23.9997 3.35031 23.9794C3.29008 23.969 3.24701 23.9512 3.3088 23.8864C3.3578 23.8547 3.39868 23.8153 3.42864 23.7649C3.53194 23.6612 3.63492 23.5579 3.73822 23.4542C3.80095 23.4113 3.85369 23.3587 3.89645 23.2958C3.99975 23.1922 4.10273 23.0888 4.20603 22.9852C4.26876 22.9423 4.3215 22.8897 4.36426 22.8267C4.46756 22.7231 4.57054 22.6198 4.67384 22.5161C4.73657 22.4732 4.78931 22.4206 4.83207 22.3577C4.94847 22.2412 5.06519 22.1247 5.1816 22.0082C5.22997 21.9772 5.27054 21.9384 5.29988 21.8886C5.40318 21.785 5.50648 21.6816 5.60946 21.578C5.67219 21.5351 5.72493 21.4825 5.76769 21.4195C5.87099 21.3159 5.97397 21.2126 6.07727 21.1089C6.14 21.0663 6.19274 21.0134 6.23519 20.9505C6.33848 20.8468 6.44178 20.7435 6.54477 20.6399C6.6075 20.597 6.66024 20.5443 6.703 20.4814C6.8194 20.3649 6.93612 20.2484 7.05253 20.132C7.1009 20.101 7.14147 20.0621 7.17081 20.0123C7.2741 19.9087 7.3774 19.8054 7.48039 19.7017C7.54312 19.6591 7.59586 19.6062 7.6383 19.5433C7.7416 19.4396 7.8449 19.3363 7.94789 19.2327C8.01062 19.1901 8.06336 19.1372 8.1058 19.0742C8.2091 18.9706 8.3124 18.8672 8.41539 18.7636C8.47811 18.7207 8.53086 18.6681 8.57361 18.6052C8.69002 18.4887 8.80674 18.3722 8.92314 18.2557C8.97151 18.2247 9.01208 18.1859 9.04142 18.1361C9.14472 18.0324 9.24802 17.9291 9.35101 17.8255C9.41373 17.7826 9.46647 17.73 9.50923 17.667C9.61253 17.5634 9.71552 17.46 9.81881 17.3564C9.88154 17.3135 9.93428 17.2609 9.97704 17.198C10.0803 17.0943 10.1833 16.991 10.2866 16.8873C10.3494 16.8444 10.4021 16.7918 10.4448 16.7289C10.5613 16.6124 10.678 16.4959 10.7944 16.3794C10.8428 16.3484 10.8833 16.3096 10.9127 16.2598C11.016 16.1562 11.1193 16.0529 11.2222 15.9492C11.285 15.9063 11.3377 15.8537 11.3805 15.7908C11.4838 15.6871 11.5868 15.5838 11.6901 15.4801C11.7528 15.4372 11.8055 15.3846 11.8483 15.3217C11.9516 15.2181 12.0546 15.1147 12.1579 15.0111C12.2206 14.9682 12.2733 14.9156 12.3161 14.8526C12.4325 14.7362 12.5492 14.6197 12.6656 14.5032C12.714 14.4722 12.7546 14.4334 12.7839 14.3836C12.8872 14.2799 12.9905 14.1766 13.0935 14.0729C13.1562 14.03 13.209 13.9774 13.2517 13.9145C13.355 13.8109 13.458 13.7075 13.5613 13.6039C13.624 13.5613 13.6768 13.5084 13.7192 13.4454C13.8225 13.3418 13.9258 13.2385 14.0288 13.1348C14.0915 13.0922 14.1439 13.0393 14.1867 12.9764C14.2728 12.8624 14.3387 12.8918 14.4317 12.9848C14.7968 13.3499 15.1523 13.7254 15.538 14.0695C15.6884 14.2201 15.8389 14.3707 15.989 14.5217C16.1363 14.6911 16.3004 14.8432 16.4665 14.9939C16.6188 15.1564 16.7723 15.3176 16.9433 15.4607C17.0582 15.5584 17.0653 15.6423 16.913 15.7072C16.909 15.709 16.9065 15.7147 16.9034 15.7187C16.8138 15.7676 16.7205 15.8105 16.6456 15.8831C16.5651 15.9335 16.4849 15.9836 16.4044 16.0341C16.1353 16.1922 15.8701 16.3563 15.6163 16.5385C15.5917 16.5513 15.5667 16.5645 15.5421 16.5773C15.5368 16.5786 15.5324 16.5817 15.5293 16.5858C15.4122 16.6628 15.2949 16.7395 15.1779 16.8166C15.1376 16.8228 15.1058 16.8419 15.0855 16.8783C14.7566 17.0862 14.4279 17.2938 14.099 17.5017C13.9676 17.5859 13.8359 17.6702 13.7045 17.7541C13.6721 17.7757 13.6396 17.7973 13.6072 17.8189C13.4667 17.8872 13.3366 17.9714 13.2155 18.07C13.1053 18.1139 13.0114 18.1831 12.9206 18.2573C12.8451 18.2883 12.773 18.3252 12.7146 18.3841C12.3885 18.592 12.0627 18.7999 11.7366 19.0075C11.6495 19.0492 11.5687 19.1005 11.4959 19.1647C11.4235 19.1882 11.3649 19.2336 11.3087 19.2828C11.0007 19.4597 10.7008 19.6501 10.409 19.8533C10.2535 19.935 10.1081 20.0321 9.96674 20.1354C9.95582 20.1326 9.94739 20.136 9.94146 20.1454C9.61066 20.3568 9.27111 20.5547 8.95279 20.7855C8.80205 20.8515 8.67004 20.947 8.53897 21.0444C8.51026 21.0629 8.48155 21.081 8.45315 21.0995C8.31958 21.1734 8.18538 21.2458 8.06804 21.345C7.95319 21.3982 7.84896 21.4684 7.75159 21.5485C7.68855 21.5871 7.6252 21.6253 7.56216 21.6638C7.23603 21.8717 6.91022 22.0796 6.58409 22.2875C6.49858 22.3251 6.42306 22.3783 6.35222 22.4385C6.27856 22.4738 6.20647 22.5114 6.14655 22.569C5.84384 22.7375 5.55859 22.9338 5.26805 23.122C5.11637 23.2206 4.96501 23.3196 4.81334 23.4182L4.80304 23.4157L4.79618 23.4214Z" fill="white"/>
<path d="M2.36415 0.990706C2.38818 0.978807 2.3732 0.899899 2.43187 0.949373C2.46339 0.975989 2.49023 1.00855 2.51956 1.03799C6.12129 4.65085 9.7224 8.26402 13.3263 11.8744C13.419 11.9674 13.4543 12.0334 13.3382 12.1224C13.2754 12.1653 13.2227 12.2182 13.1799 12.2811C13.0635 12.3976 12.9468 12.5141 12.8304 12.6306C12.782 12.6616 12.7415 12.7004 12.7121 12.7502C12.6088 12.8538 12.5055 12.9572 12.4026 13.0608C12.3398 13.1037 12.2871 13.1563 12.2443 13.2193C12.1279 13.3357 12.0112 13.4522 11.8948 13.5687C11.8464 13.5997 11.8059 13.6385 11.7765 13.6883C11.6732 13.792 11.5699 13.8953 11.4669 13.9989C11.4042 14.0418 11.3515 14.0945 11.3087 14.1574C11.1923 14.2739 11.0756 14.3904 10.9592 14.5068C10.9108 14.5378 10.8702 14.5767 10.8409 14.6265C10.7376 14.7301 10.6343 14.8334 10.5313 14.9371C10.4686 14.98 10.4158 15.0326 10.3731 15.0955C10.2567 15.212 10.14 15.3285 10.0236 15.445C9.97519 15.476 9.93462 15.5148 9.90528 15.5646C9.80198 15.6682 9.69868 15.7716 9.5957 15.8752C9.53297 15.9181 9.48022 15.9707 9.43747 16.0336C9.32106 16.1501 9.20435 16.2666 9.08794 16.3831C9.03957 16.4141 8.999 16.4529 8.96966 16.5027C8.86636 16.6064 8.76306 16.7097 8.66008 16.8133C8.59735 16.8562 8.54461 16.9088 8.50185 16.9718C8.38544 17.0883 8.26873 17.2047 8.15232 17.3212C8.10395 17.3522 8.06338 17.3911 8.03404 17.4408C7.93074 17.5445 7.82744 17.6478 7.72446 17.7515C7.66173 17.7944 7.60899 17.847 7.56623 17.9099C7.44982 18.0264 7.33311 18.1429 7.2167 18.2594C7.16833 18.2904 7.12776 18.3292 7.09842 18.379C6.99512 18.4826 6.89182 18.5859 6.78884 18.6896C6.72611 18.7325 6.67337 18.7851 6.63061 18.848C6.5142 18.9645 6.39749 19.081 6.28108 19.1975C6.23271 19.2285 6.19214 19.2673 6.1628 19.3171C6.0595 19.4207 5.9562 19.5241 5.85322 19.6277C5.79049 19.6706 5.73775 19.7232 5.69499 19.7862C5.57858 19.9026 5.46187 20.0191 5.34546 20.1356C5.29709 20.1666 5.25652 20.2054 5.22718 20.2552C5.12388 20.3589 5.02058 20.4622 4.9176 20.5659C4.85487 20.6087 4.80213 20.6614 4.75937 20.7243C4.64297 20.8408 4.52625 20.9573 4.40984 21.0737C4.36147 21.1047 4.3209 21.1436 4.29156 21.1934C4.18826 21.297 4.08496 21.4003 3.98198 21.504C3.91925 21.5469 3.86651 21.5995 3.82375 21.6624C3.70735 21.7789 3.59063 21.8954 3.47422 22.0119C3.42585 22.0429 3.38528 22.0817 3.35594 22.1315C3.25264 22.2351 3.14934 22.3385 3.04636 22.4421C2.98363 22.4847 2.93089 22.5376 2.88844 22.6006C2.77204 22.717 2.65532 22.8335 2.53891 22.95C2.49085 22.9813 2.44935 23.0189 2.42251 23.0706C2.31609 22.9838 2.35635 22.8623 2.35635 22.7559C2.35572 15.5862 2.35603 8.41401 2.35603 1.24152C2.35603 1.1789 2.35791 1.11658 2.35915 1.05396C2.36071 1.03298 2.36228 1.012 2.36415 0.990706Z" fill="white"/>
<path d="M21.1342 11.0012C21.214 11.0732 21.2943 11.1452 21.3741 11.2175C21.5923 11.5056 21.6847 11.8281 21.6407 12.1885C21.6366 12.2227 21.6325 12.2571 21.6285 12.2916C21.5882 12.3921 21.548 12.4926 21.508 12.5928C21.3951 12.7453 21.2836 12.8981 21.1189 13.002C20.9766 13.0919 20.8386 13.189 20.6988 13.2829C20.5683 13.3578 20.437 13.4304 20.3221 13.5294C20.2825 13.5334 20.2541 13.5569 20.2282 13.5845C19.8889 13.8049 19.5497 14.025 19.2105 14.2455C19.0832 14.3056 18.9658 14.3817 18.8578 14.4719C18.8297 14.4903 18.8017 14.5088 18.7736 14.5273C18.6466 14.5868 18.5301 14.6626 18.4225 14.7524C18.3978 14.7653 18.3729 14.7784 18.3482 14.7913C18.3426 14.7925 18.3382 14.7956 18.3351 14.8003C18.2015 14.8774 18.0711 15.0333 17.9269 14.8154C17.8298 14.7048 17.7337 14.594 17.6176 14.5022C17.5527 14.4365 17.4875 14.3704 17.4226 14.3047C17.3349 14.2135 17.2475 14.1224 17.1598 14.0313C17.0936 13.9649 17.0272 13.8982 16.961 13.8318C16.8805 13.7326 16.7909 13.6424 16.692 13.5619C16.6258 13.4955 16.5597 13.4292 16.4935 13.3625C16.3028 13.1505 16.1093 12.941 15.8949 12.7528C15.8643 12.7224 15.8341 12.6917 15.8035 12.6614C15.7935 12.6498 15.7832 12.6385 15.7732 12.6269C15.723 12.5527 15.6578 12.4935 15.5885 12.4378C15.4845 12.3326 15.3803 12.2274 15.2764 12.1222C15.1656 12.037 15.1778 11.9606 15.2848 11.8785C15.3407 11.8356 15.3828 11.7752 15.4312 11.7226C15.4933 11.6797 15.5457 11.6268 15.5885 11.5648C15.7092 11.4568 15.8269 11.3459 15.9289 11.2194C15.9598 11.1872 15.9907 11.1549 16.0216 11.1227C16.1565 10.9968 16.296 10.8756 16.4064 10.7259L16.4036 10.7287C16.427 10.7059 16.4504 10.6827 16.4738 10.6599C16.4804 10.6533 16.4873 10.6464 16.4938 10.6398C16.6118 10.5215 16.7301 10.4031 16.848 10.2844C16.8948 10.2556 16.9326 10.2177 16.9616 10.1704C17.0796 10.0521 17.1979 9.93371 17.3158 9.81504C17.3514 9.7759 17.387 9.73707 17.4229 9.69793C17.5399 9.57988 17.6569 9.46183 17.774 9.34378C17.8161 9.29994 17.8579 9.25642 17.9001 9.21258C18.0892 9.05007 18.0889 9.05007 18.3079 9.1869C18.3248 9.19755 18.3432 9.20538 18.361 9.21446C18.4094 9.25204 18.4549 9.29462 18.5167 9.3109C18.6116 9.39013 18.7146 9.45682 18.8257 9.51099C18.9449 9.60712 19.0725 9.6901 19.2105 9.7568C19.2564 9.78748 19.3022 9.81786 19.3481 9.84854C19.4539 9.93277 19.5666 10.0057 19.6877 10.0655C20.025 10.2838 20.3624 10.5017 20.6997 10.72C20.7103 10.7447 20.7309 10.7522 20.7559 10.7522C20.8711 10.8512 21.0028 10.926 21.1342 11.0012Z" fill="white"/>
</svg>
