<svg width="20" height="20" viewBox="0 0 20 20" fill="none" xmlns="http://www.w3.org/2000/svg">
<path fill-rule="evenodd" clip-rule="evenodd" d="M11.2193 0.608016C10.607 -0.199417 9.39319 -0.199417 8.78095 0.608016L7.40692 2.42013C7.18858 2.70808 6.83187 2.85583 6.47387 2.80661L4.22093 2.49684C3.21707 2.35882 2.35876 3.21713 2.49678 4.22099L2.80655 6.47393C2.85577 6.83193 2.70802 7.18864 2.42007 7.40698L0.607955 8.78101C-0.199478 9.39325 -0.199478 10.6071 0.607955 11.2193L2.42007 12.5934C2.70802 12.8117 2.85577 13.1684 2.80655 13.5264L2.49678 15.7794C2.35876 16.7832 3.21707 17.6415 4.22092 17.5035L6.47387 17.1937C6.83187 17.1445 7.18858 17.2923 7.40691 17.5802L8.78095 19.3923C9.39319 20.1998 10.607 20.1998 11.2193 19.3923L12.5933 17.5802C12.8116 17.2923 13.1683 17.1445 13.5263 17.1937L15.7793 17.5035C16.7831 17.6415 17.6415 16.7832 17.5034 15.7794L17.1937 13.5264C17.1444 13.1684 17.2922 12.8117 17.5801 12.5934L19.3923 11.2193C20.1997 10.6071 20.1997 9.39325 19.3923 8.78101L17.5801 7.40698C17.2922 7.18864 17.1444 6.83193 17.1937 6.47393L17.5034 4.22099C17.6415 3.21713 16.7831 2.35882 15.7793 2.49684L13.5263 2.80661C13.1683 2.85583 12.8116 2.70808 12.5933 2.42013L11.2193 0.608016ZM12.7071 7.29296C12.3166 6.90243 11.6834 6.90243 11.2929 7.29296L7.29289 11.293C6.90237 11.6835 6.90237 12.3166 7.29289 12.7072C7.68342 13.0977 8.31658 13.0977 8.70711 12.7072L12.7071 8.70717C13.0976 8.31664 13.0976 7.68348 12.7071 7.29296ZM8 9.00006C7.44772 9.00006 7 8.55235 7 8.00006C7 7.44778 7.44772 7.00006 8 7.00006C8.55229 7.00006 9 7.44778 9 8.00006C9 8.55235 8.55229 9.00006 8 9.00006ZM12 13.0001C12.5523 13.0001 13 12.5523 13 12.0001C13 11.4478 12.5523 11.0001 12 11.0001C11.4477 11.0001 11 11.4478 11 12.0001C11 12.5523 11.4477 13.0001 12 13.0001Z" fill="#323232"/>
</svg>
